<svg xmlns="http://www.w3.org/2000/svg" width="1200" height="375" viewBox="0 0 1200 375" version="1.1"><path d="M 160 1.507 C 156.975 2.245, 152.359 3.767, 149.743 4.891 C 147.127 6.015, 142.378 8.706, 139.190 10.871 C 136.003 13.036, 130.873 17.530, 127.791 20.859 C 124.710 24.187, 119.950 30.643, 117.215 35.205 C 114.479 39.767, 101.865 63.975, 89.183 89 C 76.501 114.025, 59.522 148.225, 51.451 165 C 43.381 181.775, 32.158 205.413, 26.512 217.529 C 20.866 229.645, 13.662 245.395, 10.504 252.529 C 7.346 259.663, 3.656 269.775, 2.304 275 C 0.133 283.392, -0.106 286.074, 0.259 298 C 0.621 309.820, 1.050 312.586, 3.710 320.229 C 5.381 325.030, 8.618 332.107, 10.904 335.955 C 13.190 339.803, 17.603 345.697, 20.710 349.053 C 23.817 352.409, 29.091 357.092, 32.430 359.460 C 35.768 361.827, 41.200 365.116, 44.500 366.767 C 47.800 368.419, 53.650 370.751, 57.500 371.950 C 61.857 373.306, 68.464 374.340, 75 374.687 C 82.626 375.092, 87.916 374.788, 94.326 373.576 C 99.181 372.658, 106.901 370.551, 111.482 368.893 C 116.064 367.235, 124.242 363.242, 129.656 360.019 C 135.070 356.795, 143.100 351.234, 147.500 347.660 C 151.900 344.086, 159.521 337.095, 164.435 332.125 L 173.370 323.089 184.453 333.795 C 190.550 339.683, 198.904 347.063, 203.019 350.195 C 207.133 353.327, 214.320 358.161, 218.990 360.937 C 223.659 363.713, 231.162 367.317, 235.663 368.946 C 240.164 370.574, 247.819 372.656, 252.674 373.572 C 258.919 374.751, 264.570 375.093, 272 374.744 C 280.220 374.358, 284.563 373.561, 292 371.074 C 297.225 369.327, 304.650 366.048, 308.500 363.787 C 312.607 361.376, 319.013 356.128, 324 351.088 C 328.675 346.365, 334.010 339.925, 335.855 336.779 C 337.700 333.632, 340.309 328.335, 341.653 325.008 C 342.997 321.681, 344.965 315.031, 346.026 310.229 C 347.134 305.219, 347.966 297.627, 347.978 292.410 C 347.992 286.514, 347.294 280.559, 345.991 275.464 C 344.886 271.143, 341.664 262.184, 338.830 255.554 C 335.997 248.924, 330.601 237.038, 326.839 229.141 C 323.078 221.243, 320 214.643, 320 214.473 C 320 214.304, 312.408 198.265, 303.130 178.833 C 293.851 159.400, 280.173 131.350, 272.734 116.500 C 265.295 101.650, 253.180 77.800, 245.812 63.500 C 238.444 49.200, 230.440 34.575, 228.026 31 C 225.612 27.425, 220.681 21.540, 217.068 17.922 C 213.456 14.304, 207.529 9.690, 203.899 7.669 C 200.268 5.648, 193.784 3.096, 189.489 1.997 C 184.594 0.745, 178.661 0.031, 173.590 0.083 C 169.141 0.129, 163.025 0.770, 160 1.507 M 168 26.135 C 164.975 26.630, 160.176 28.167, 157.335 29.550 C 154.293 31.031, 149.770 34.642, 146.335 38.335 C 143.126 41.784, 138.285 48.632, 135.578 53.553 C 132.871 58.474, 117.770 88.150, 102.019 119.500 C 86.267 150.850, 68.506 186.850, 62.549 199.500 C 56.591 212.150, 47.043 232.526, 41.330 244.779 C 35.617 257.033, 29.532 271.208, 27.809 276.279 C 25.149 284.106, 24.667 287.012, 24.621 295.500 C 24.580 303.078, 25.095 307.206, 26.749 312.542 C 27.949 316.414, 30.677 322.264, 32.811 325.542 C 34.945 328.819, 39.163 333.819, 42.185 336.654 C 45.206 339.489, 50.447 343.207, 53.832 344.915 C 57.217 346.624, 62.559 348.692, 65.703 349.511 C 68.848 350.330, 75.506 351, 80.500 351 C 85.494 351, 92.262 350.316, 95.540 349.479 C 98.818 348.642, 105.550 346.008, 110.500 343.624 C 115.450 341.240, 123.325 336.444, 128 332.966 C 132.675 329.488, 141.305 321.958, 147.178 316.233 L 157.857 305.823 149.300 294.317 C 144.594 287.989, 137.911 278.184, 134.448 272.528 C 130.986 266.873, 126.715 259.398, 124.958 255.918 C 123.201 252.437, 120.234 245.629, 118.365 240.789 C 116.496 235.948, 113.849 227.378, 112.484 221.744 C 110.728 214.493, 110.002 208.699, 110.001 201.910 C 110 195.629, 110.682 189.655, 111.975 184.596 C 113.062 180.348, 115.409 174.088, 117.192 170.686 C 119.091 167.061, 123.552 161.347, 127.966 156.885 C 133.337 151.456, 137.615 148.206, 142.864 145.565 C 146.915 143.527, 153.624 140.991, 157.774 139.930 C 162.383 138.751, 168.698 138, 174 138 C 179.381 138, 185.626 138.753, 190.432 139.983 C 194.696 141.073, 201.180 143.416, 204.842 145.190 C 209.512 147.452, 213.916 150.815, 219.594 156.457 C 225.660 162.485, 228.607 166.379, 231.358 172 C 233.376 176.125, 235.743 182.875, 236.617 187 C 237.773 192.459, 238.051 197.357, 237.637 205 C 237.315 210.948, 236.018 219.635, 234.646 225.037 C 233.314 230.282, 230.563 238.607, 228.534 243.537 C 226.504 248.467, 222.873 256.134, 220.465 260.575 C 218.056 265.017, 213.306 272.892, 209.910 278.075 C 206.513 283.259, 200.826 291.275, 197.272 295.889 C 191.183 303.794, 190.887 304.421, 192.144 306.770 C 192.878 308.141, 197.533 313.081, 202.489 317.749 C 207.445 322.416, 215.325 329.112, 220 332.628 C 224.675 336.144, 232.100 340.807, 236.500 342.989 C 240.900 345.172, 248.059 347.868, 252.410 348.979 C 256.951 350.139, 263.570 351, 267.950 351 C 272.146 351, 278.184 350.322, 281.368 349.492 C 284.551 348.663, 289.483 346.883, 292.328 345.536 C 295.173 344.189, 300.171 340.930, 303.435 338.293 C 306.699 335.657, 311.264 330.728, 313.580 327.340 C 315.895 323.952, 318.745 318.625, 319.914 315.501 C 321.082 312.377, 322.546 306.410, 323.166 302.240 C 324.020 296.502, 324.003 292.758, 323.097 286.841 C 322.439 282.541, 321.079 276.656, 320.075 273.762 C 319.071 270.868, 314.861 261.075, 310.721 252 C 306.581 242.925, 299.605 227.850, 295.219 218.500 C 290.833 209.150, 281.744 190.025, 275.021 176 C 268.299 161.975, 251.724 128.459, 238.189 101.520 C 224.654 74.581, 211.370 49.236, 208.670 45.198 C 205.969 41.160, 201.564 36.121, 198.882 34.001 C 196.199 31.880, 191.641 29.274, 188.752 28.209 C 185.863 27.144, 181.250 26.039, 178.500 25.754 C 175.750 25.468, 171.025 25.640, 168 26.135 M 597.290 72.086 C 594.974 73.232, 591.505 75.913, 589.580 78.044 C 587.459 80.391, 585.430 84.154, 584.429 87.595 C 583.063 92.295, 582.971 94.240, 583.894 98.886 C 584.507 101.974, 586.258 106.289, 587.785 108.476 C 589.312 110.663, 592.763 113.813, 595.453 115.476 C 599.769 118.145, 601.233 118.500, 607.922 118.500 C 614.432 118.500, 616.176 118.103, 620.292 115.683 C 622.928 114.134, 626.372 111.088, 627.947 108.915 C 629.521 106.741, 631.344 102.734, 631.997 100.011 C 632.689 97.128, 632.888 93.269, 632.473 90.779 C 632.081 88.426, 630.955 84.925, 629.972 83 C 628.988 81.075, 626.904 78.289, 625.342 76.809 C 623.779 75.329, 620.475 73.201, 618 72.081 C 615.107 70.771, 611.358 70.036, 607.500 70.023 C 603.398 70.008, 600.168 70.661, 597.290 72.086 M 747.461 71.250 C 747.199 71.938, 747.101 119.075, 747.242 176 L 747.500 279.500 762 279.787 C 769.975 279.945, 777.481 279.832, 778.680 279.536 C 779.879 279.239, 781.567 278.291, 782.430 277.427 C 783.294 276.564, 784 274.268, 784 272.325 L 784 268.793 787.537 271.898 C 789.482 273.606, 793.195 276.078, 795.787 277.390 C 798.379 278.703, 802.944 280.502, 805.932 281.388 C 809.143 282.341, 814.989 283, 820.234 283 C 825.113 283, 832.344 282.287, 836.303 281.416 C 840.261 280.544, 847.681 277.825, 852.792 275.373 C 859.793 272.014, 863.917 269.174, 869.519 263.852 C 873.608 259.968, 878.803 253.861, 881.065 250.280 C 883.326 246.700, 886.302 240.784, 887.679 237.135 C 889.056 233.486, 890.816 227.198, 891.591 223.162 C 892.366 219.126, 892.997 212.601, 892.992 208.662 C 892.988 204.723, 892.512 198.575, 891.935 195 C 891.358 191.425, 889.818 185.424, 888.513 181.665 C 887.209 177.906, 884.647 172.281, 882.821 169.165 C 880.994 166.049, 875.675 159.667, 871 154.982 C 865.149 149.118, 860.314 145.322, 855.484 142.800 C 851.625 140.785, 845.100 138.186, 840.984 137.024 C 836.868 135.861, 829.675 134.654, 825 134.341 C 820.325 134.027, 814.025 134.236, 811 134.806 C 807.975 135.375, 803.025 136.773, 800 137.912 C 796.975 139.052, 792.138 141.781, 789.250 143.977 L 784 147.969 784 108.985 L 784 70 765.969 70 C 752.464 70, 747.818 70.314, 747.461 71.250 M 1055.245 174.750 L 1055.500 279.500 1070.500 279.749 C 1081.101 279.925, 1086.233 279.625, 1088 278.726 C 1089.965 277.725, 1090.565 276.559, 1090.805 273.275 L 1091.110 269.097 1095.805 272.698 C 1098.387 274.678, 1102.750 277.347, 1105.500 278.629 C 1108.250 279.911, 1112.975 281.476, 1116 282.106 C 1119.216 282.776, 1125.861 283.043, 1132 282.747 C 1139.736 282.375, 1144.606 281.533, 1150.500 279.547 C 1154.900 278.065, 1160.915 275.473, 1163.866 273.787 C 1166.817 272.100, 1171.853 268.540, 1175.056 265.874 C 1178.259 263.208, 1182.942 258.137, 1185.463 254.604 C 1187.984 251.071, 1191.564 244.877, 1193.417 240.840 C 1195.271 236.803, 1197.569 229.956, 1198.522 225.625 C 1199.867 219.516, 1200.140 214.918, 1199.740 205.125 C 1199.365 195.980, 1198.609 190.571, 1196.997 185.500 C 1195.772 181.650, 1193.505 175.991, 1191.958 172.924 C 1190.412 169.856, 1187.010 164.681, 1184.399 161.424 C 1181.788 158.166, 1177.145 153.330, 1174.081 150.677 C 1171.017 148.024, 1164.907 144.091, 1160.505 141.937 C 1156.102 139.783, 1149.800 137.326, 1146.500 136.479 C 1143.200 135.631, 1137.118 134.668, 1132.985 134.339 C 1128.703 133.998, 1122.400 134.258, 1118.333 134.944 C 1114.407 135.606, 1108.532 137.407, 1105.278 138.946 C 1102.023 140.485, 1097.704 143.199, 1095.680 144.976 L 1092 148.207 1092 109.104 L 1092 70 1073.495 70 L 1054.991 70 1055.245 174.750 M 481 135.499 C 477.425 136.220, 471.998 137.753, 468.940 138.906 C 465.882 140.059, 460.832 142.536, 457.717 144.411 C 454.603 146.287, 449.976 149.525, 447.435 151.607 C 444.894 153.689, 440.845 157.953, 438.438 161.081 C 436.030 164.210, 432.514 169.859, 430.624 173.635 C 428.733 177.411, 426.467 182.985, 425.589 186.022 C 424.710 189.059, 423.618 195.359, 423.163 200.022 C 422.708 204.685, 422.698 212.466, 423.141 217.314 C 423.618 222.530, 425.135 229.577, 426.858 234.575 C 428.459 239.221, 431.284 245.586, 433.135 248.719 C 434.986 251.852, 439.875 257.813, 444 261.967 C 448.125 266.121, 454.425 271.214, 458 273.285 C 461.575 275.357, 468.100 278.222, 472.500 279.653 C 478.247 281.521, 483.463 282.393, 491.019 282.746 C 497.091 283.030, 503.854 282.756, 507.019 282.099 C 510.033 281.472, 514.750 279.911, 517.500 278.629 C 520.250 277.347, 524.613 274.678, 527.195 272.698 L 531.890 269.097 532.195 273.275 C 532.435 276.559, 533.035 277.725, 535 278.726 C 536.767 279.625, 541.899 279.925, 552.500 279.749 L 567.500 279.500 567.757 208.750 L 568.013 138 551.941 138 C 542.774 138, 535.037 138.445, 533.934 139.035 C 532.511 139.797, 532 141.140, 532 144.119 L 532 148.168 528.250 145.215 C 526.188 143.590, 522.146 141.074, 519.269 139.624 C 516.392 138.173, 511.217 136.321, 507.769 135.508 C 504.321 134.695, 498.350 134.065, 494.500 134.109 C 490.650 134.152, 484.575 134.778, 481 135.499 M 707.265 135.473 C 704.385 136.286, 699.789 138.087, 697.051 139.474 C 694.314 140.861, 690.540 143.343, 688.666 144.988 L 685.258 147.980 684.678 144.401 C 684.358 142.432, 683.570 140.187, 682.926 139.411 C 682.003 138.298, 678.185 138, 664.878 138 L 648 138 648 209 L 648 280 666.500 280 L 685 280 685 230.167 L 685 180.335 689.024 177.101 C 691.237 175.323, 695.624 172.672, 698.774 171.210 C 703.861 168.849, 705.727 168.549, 715.500 168.526 C 721.550 168.512, 728.188 168.858, 730.250 169.295 L 734 170.091 734 153.152 C 734 138.200, 733.803 136.138, 732.317 135.568 C 731.391 135.213, 726.554 134.713, 721.567 134.458 C 715.322 134.138, 710.870 134.454, 707.265 135.473 M 966.284 135.510 C 962.865 136.253, 957.690 138.045, 954.784 139.493 C 951.878 140.940, 947.813 143.468, 945.750 145.109 L 942 148.094 942 145.270 C 942 143.716, 941.299 141.445, 940.443 140.223 C 938.945 138.084, 938.285 138, 922.937 138 L 906.987 138 907.243 208.750 L 907.500 279.500 925.500 279.500 L 943.500 279.500 943.759 230.360 L 944.019 181.219 947.259 178.018 C 949.042 176.258, 953.051 173.521, 956.169 171.936 C 959.287 170.350, 964.296 168.668, 967.302 168.196 C 970.307 167.725, 975.505 167.662, 978.853 168.057 C 982.536 168.491, 986.700 169.806, 989.396 171.386 C 992.791 173.376, 994.524 175.366, 996.676 179.749 L 999.500 185.500 999.796 232.750 L 1000.091 280 1018.611 280 L 1037.131 280 1036.757 229.250 C 1036.430 184.959, 1036.163 177.736, 1034.659 172.500 C 1033.712 169.200, 1031.736 164.105, 1030.268 161.177 C 1028.704 158.058, 1024.916 153.344, 1021.118 149.792 C 1017.170 146.099, 1011.863 142.412, 1007.540 140.359 C 1003.636 138.505, 997.306 136.324, 993.471 135.511 C 989.637 134.699, 983.350 134.063, 979.500 134.097 C 975.650 134.131, 969.703 134.767, 966.284 135.510 M 590 209 L 590 280 608 280 L 626 280 626 209 L 626 138 608 138 L 590 138 590 209 M 167.638 162.213 C 164.414 162.622, 159.385 164.051, 156.463 165.388 C 153.541 166.726, 149.091 169.718, 146.575 172.038 C 143.979 174.431, 140.642 179.014, 138.860 182.632 C 136.217 188.001, 135.643 190.490, 135.231 198.374 C 134.877 205.147, 135.225 209.920, 136.488 215.619 C 137.448 219.954, 139.562 226.875, 141.185 231 C 142.808 235.125, 146.408 242.775, 149.185 248 C 151.962 253.225, 157.003 261.550, 160.386 266.500 C 163.770 271.450, 168.105 277.620, 170.019 280.211 C 171.934 282.802, 173.725 284.934, 174 284.948 C 174.275 284.962, 177.474 280.795, 181.108 275.688 C 184.743 270.581, 190.499 261.797, 193.899 256.168 C 197.299 250.538, 201.632 242.530, 203.527 238.371 C 205.423 234.211, 208.184 227.139, 209.664 222.654 C 211.979 215.636, 212.364 212.759, 212.427 202 C 212.494 190.450, 212.296 189.066, 209.820 183.782 C 208.346 180.637, 205.076 175.858, 202.554 173.161 C 199.643 170.049, 195.706 167.244, 191.773 165.478 C 188.365 163.949, 182.860 162.422, 179.538 162.084 C 176.217 161.746, 170.862 161.804, 167.638 162.213 M 806.746 169.022 C 804.681 169.544, 800.703 171.130, 797.906 172.548 C 795.108 173.965, 790.835 176.954, 788.410 179.190 L 784 183.255 784 208.419 L 784 233.584 788.250 237.690 C 790.587 239.948, 794.975 243.079, 798 244.648 C 803.126 247.306, 804.282 247.498, 815 247.475 C 824.638 247.453, 827.437 247.075, 832.285 245.140 C 835.797 243.738, 840.353 240.716, 843.884 237.447 C 847.927 233.704, 850.547 230.173, 852.485 225.855 C 854.604 221.132, 855.390 217.560, 855.768 210.937 C 856.171 203.874, 855.862 200.932, 854.134 195.364 C 852.962 191.589, 850.450 186.400, 848.552 183.833 C 846.653 181.266, 843.045 177.751, 840.533 176.023 C 838.021 174.295, 833.386 171.993, 830.233 170.907 C 827.080 169.822, 821.350 168.740, 817.500 168.504 C 813.650 168.267, 808.811 168.501, 806.746 169.022 M 1113.024 169.603 C 1110.013 170.412, 1105.607 172.212, 1103.235 173.603 C 1100.862 174.993, 1097.363 177.498, 1095.460 179.169 L 1092 182.207 1092 208.258 L 1092 234.310 1096.193 238.299 C 1098.500 240.493, 1102.887 243.460, 1105.943 244.894 C 1110.922 247.229, 1112.696 247.500, 1123 247.500 C 1133.844 247.500, 1134.882 247.319, 1141.201 244.326 C 1144.899 242.574, 1149.976 239.077, 1152.531 236.522 C 1155.077 233.976, 1158.225 229.555, 1159.527 226.696 C 1160.830 223.838, 1162.356 218.610, 1162.920 215.078 C 1163.600 210.816, 1163.617 206.351, 1162.971 201.799 C 1162.421 197.917, 1160.738 192.442, 1159.093 189.184 C 1157.494 186.017, 1154.164 181.563, 1151.693 179.284 C 1149.221 177.006, 1145.306 174.177, 1142.993 172.997 C 1140.680 171.817, 1135.798 170.217, 1132.144 169.443 C 1128.490 168.668, 1123.925 168.057, 1122 168.083 C 1120.075 168.110, 1116.036 168.794, 1113.024 169.603 M 487.697 170.455 C 485.056 171.206, 480.385 173.323, 477.319 175.160 C 474.206 177.024, 470.068 180.710, 467.953 183.500 C 465.869 186.250, 463.340 190.525, 462.332 193 C 460.923 196.461, 460.500 200.156, 460.500 209 C 460.500 219.363, 460.763 221.061, 463.160 226.175 C 464.624 229.296, 467.726 233.917, 470.054 236.442 C 472.494 239.090, 476.873 242.268, 480.393 243.947 C 483.752 245.548, 489.576 247.393, 493.335 248.047 C 497.095 248.700, 502.420 248.937, 505.170 248.572 C 507.919 248.207, 512.604 246.997, 515.581 245.884 C 518.765 244.693, 523.260 241.788, 526.497 238.829 L 532 233.799 532 208.728 L 532 183.657 527.356 179.207 C 524.801 176.760, 520.189 173.577, 517.106 172.135 C 512.458 169.961, 509.877 169.477, 502 169.302 C 496.335 169.176, 490.561 169.641, 487.697 170.455" stroke="none" fill="#fc5c5c" fill-rule="evenodd"/></svg>